<svg width="182" height="41" viewBox="0 0 182 41" fill="none" xmlns="http://www.w3.org/2000/svg">
<path d="M7.95097 19V0.5H11.476L19.451 12.3V0.5H23.276V19H19.701L11.776 7.525V19H7.95097Z" fill="white"/>
<path d="M0.699997 19V0.5H4.55V19H0.699997Z" fill="white"/>
<path d="M87.4481 19.25C86.3814 19.25 85.4647 19.1167 84.6981 18.85C83.9481 18.5667 83.3231 18.2083 82.8231 17.775C82.3231 17.325 81.9231 16.8583 81.6231 16.375C81.3231 15.8917 81.0981 15.4333 80.9481 15C80.7981 14.55 80.6981 14.1917 80.6481 13.925C80.6147 13.6417 80.5981 13.5 80.5981 13.5H83.0981C83.0981 13.5 83.1231 13.6167 83.1731 13.85C83.2231 14.0833 83.3231 14.375 83.4731 14.725C83.6397 15.075 83.8814 15.4333 84.1981 15.8C84.5147 16.15 84.9397 16.4417 85.4731 16.675C86.0064 16.9083 86.6814 17.025 87.4981 17.025C88.7314 17.025 89.7064 16.7333 90.4231 16.15C91.1397 15.55 91.4981 14.775 91.4981 13.825C91.4981 13.0083 91.2231 12.375 90.6731 11.925C90.1397 11.475 89.3731 11.125 88.3731 10.875L85.9231 10.275C85.0564 10.0583 84.2481 9.75833 83.4981 9.375C82.7647 8.975 82.1731 8.45833 81.7231 7.825C81.2897 7.175 81.0731 6.36667 81.0731 5.4C81.0731 4.31667 81.3397 3.39167 81.8731 2.625C82.4064 1.85833 83.1314 1.275 84.0481 0.875001C84.9647 0.458334 86.0064 0.25 87.1731 0.25C88.3064 0.25 89.2481 0.425 89.9981 0.775001C90.7481 1.125 91.3481 1.55833 91.7981 2.075C92.2481 2.575 92.5814 3.08333 92.7981 3.6C93.0147 4.1 93.1564 4.525 93.2231 4.875C93.2897 5.225 93.3231 5.4 93.3231 5.4H90.9231C90.9231 5.4 90.8897 5.25 90.8231 4.95C90.7564 4.65 90.5981 4.30833 90.3481 3.925C90.0981 3.525 89.7147 3.175 89.1981 2.875C88.6814 2.575 87.9814 2.425 87.0981 2.425C85.8981 2.425 84.9897 2.70833 84.3731 3.275C83.7731 3.84167 83.4731 4.49167 83.4731 5.225C83.4731 5.89167 83.7147 6.43333 84.1981 6.85C84.6814 7.25 85.3481 7.55833 86.1981 7.775L88.8481 8.425C89.7981 8.65833 90.6564 9 91.4231 9.45C92.1897 9.88333 92.7981 10.45 93.2481 11.15C93.6981 11.8333 93.9231 12.675 93.9231 13.675C93.9231 14.675 93.6731 15.6 93.1731 16.45C92.6897 17.3 91.9647 17.9833 90.9981 18.5C90.0481 19 88.8647 19.25 87.4481 19.25Z" fill="white"/>
<path d="M70.1828 19.25C68.7328 19.25 67.4828 18.975 66.4328 18.425C65.3828 17.8583 64.5661 17.0667 63.9828 16.05C63.4161 15.0167 63.1328 13.8 63.1328 12.4V0.5H65.5828V12.4C65.5828 13.6833 65.9578 14.7583 66.7078 15.625C67.4745 16.4917 68.6328 16.925 70.1828 16.925C71.7495 16.925 72.9078 16.4917 73.6578 15.625C74.4245 14.7583 74.8078 13.6833 74.8078 12.4V0.5H77.2578V12.4C77.2578 13.8 76.9661 15.0167 76.3828 16.05C75.8161 17.0667 75.0078 17.8583 73.9578 18.425C72.9078 18.975 71.6495 19.25 70.1828 19.25Z" fill="white"/>
<path d="M43.8496 19L50.3746 0.5H53.4496L59.9996 19H57.3996L55.8496 14.575H47.9996L46.4496 19H43.8496ZM48.7496 12.375H55.0996L51.9246 3.3L48.7496 12.375Z" fill="white"/>
<path d="M27 19V0.5H29.45V8.525H38.275V0.5H40.725V19H38.275V10.725H29.45V19H27Z" fill="white"/>
<path d="M173.22 19.25C171.67 19.25 170.312 18.9833 169.145 18.45C167.978 17.9167 167.003 17.2 166.22 16.3C165.453 15.3833 164.878 14.3667 164.495 13.25C164.112 12.1167 163.92 10.9583 163.92 9.775C163.92 8.59167 164.112 7.43333 164.495 6.3C164.895 5.16667 165.478 4.15 166.245 3.25C167.028 2.33333 168.012 1.60833 169.195 1.075C170.378 0.525 171.762 0.25 173.345 0.25C174.578 0.25 175.637 0.408334 176.52 0.725001C177.42 1.025 178.17 1.425 178.77 1.925C179.37 2.40833 179.845 2.925 180.195 3.475C180.562 4.025 180.837 4.55 181.02 5.05C181.22 5.53333 181.345 5.93333 181.395 6.25C181.462 6.55 181.495 6.7 181.495 6.7H177.67C177.67 6.7 177.62 6.55 177.52 6.25C177.42 5.95 177.22 5.6 176.92 5.2C176.62 4.78333 176.178 4.425 175.595 4.125C175.028 3.80833 174.278 3.65 173.345 3.65C172.128 3.65 171.112 3.95 170.295 4.55C169.495 5.13333 168.887 5.89167 168.47 6.825C168.07 7.74167 167.87 8.7 167.87 9.7C167.87 10.7333 168.078 11.725 168.495 12.675C168.912 13.6083 169.52 14.375 170.32 14.975C171.137 15.5583 172.153 15.85 173.37 15.85C174.703 15.85 175.753 15.5083 176.52 14.825C177.303 14.1417 177.77 13.2167 177.92 12.05H173.12V9.025H181.72V10.45C181.72 12.3833 181.345 14.0083 180.595 15.325C179.862 16.625 178.853 17.6083 177.57 18.275C176.303 18.925 174.853 19.25 173.22 19.25Z" fill="white"/>
<path d="M145.894 19V0.5H149.419L157.394 12.3V0.5H161.219V19H157.644L149.719 7.525V19H145.894Z" fill="white"/>
<path d="M138.643 19V0.5H142.493V19H138.643Z" fill="white"/>
<path d="M125.065 19L118.765 0.5H122.815L127.64 15.225L132.44 0.5H136.49L130.19 19H125.065Z" fill="white"/>
<path d="M112.764 19V0.5H116.614V19H112.764Z" fill="white"/>
<path d="M96.7 19V0.5H100.55V15.65H109.6V19H96.7Z" fill="white"/>
<path d="M173.961 38.11C172.721 38.1 171.751 37.03 171.751 35.62C171.751 34.23 172.701 32.95 174.421 32.94C174.971 32.94 175.431 33.11 175.781 33.33V31.43C175.781 30.73 175.651 30.63 175.381 30.51V30.4L176.481 29.92L176.561 29.99V36.73C176.561 37.55 176.651 37.78 176.961 37.87V38H176.081C175.891 38 175.781 37.89 175.781 37.7V37.13C175.291 37.64 174.671 38.12 173.961 38.11ZM172.501 35.02C172.501 36.19 173.051 37.62 174.411 37.62C174.931 37.62 175.391 37.35 175.781 36.95V34.5C175.691 33.85 174.951 33.13 174.111 33.13C173.051 33.13 172.501 33.96 172.501 35.02Z" fill="white"/>
<path d="M167.298 38V37.87C167.598 37.78 167.698 37.55 167.698 36.73V31.43C167.698 30.73 167.568 30.63 167.298 30.51V30.4L168.388 29.92L168.478 29.99V36.73C168.478 37.55 168.568 37.78 168.878 37.87V38H167.298Z" fill="white"/>
<path d="M162.892 38V37.87C163.202 37.78 163.292 37.55 163.292 36.73V34.43C163.292 33.73 163.172 33.63 162.892 33.51V33.4L163.992 32.92L164.072 32.99V36.73C164.072 37.55 164.172 37.78 164.472 37.87V38H162.892ZM163.072 31.76C163.072 31.44 163.312 31.2 163.622 31.2C163.942 31.2 164.172 31.44 164.172 31.76C164.172 32.06 163.932 32.31 163.622 32.31C163.312 32.31 163.072 32.06 163.072 31.76Z" fill="white"/>
<path d="M156.989 38.1C155.939 38.1 155.459 37.43 155.459 36.28V34.43C155.459 33.73 155.329 33.63 155.059 33.51V33.4L156.149 32.92L156.239 32.99V36.1C156.239 37.24 156.559 37.75 157.359 37.75C157.949 37.75 158.489 37.38 158.939 36.9V34.43C158.939 33.73 158.809 33.63 158.539 33.51V33.4L159.629 32.92L159.719 32.99V36.73C159.719 37.55 159.809 37.78 160.119 37.87V38H159.269C159.049 38 158.939 37.89 158.939 37.6V37.09C158.429 37.62 157.739 38.1 156.989 38.1Z" fill="white"/>
<path d="M147.096 38V37.87C147.396 37.78 147.496 37.55 147.496 36.73V32.27C147.496 31.45 147.396 31.22 147.096 31.13V31H149.436C150.976 31 151.606 31.51 151.606 32.32C151.606 33 151.166 33.62 150.026 33.83C151.656 33.91 152.376 34.72 152.386 35.7C152.406 36.82 151.566 38 149.136 38H147.096ZM148.316 36.98C148.316 37.7 148.406 37.85 148.836 37.85H149.226C150.856 37.85 151.476 37.06 151.476 35.95C151.476 34.8 150.836 33.96 149.336 33.96H148.316V36.98ZM148.316 33.81H149.246C150.236 33.81 150.696 33.23 150.696 32.5C150.696 31.67 150.106 31.15 149.076 31.15H148.316V33.81Z" fill="white"/>
<path d="M137.297 34.35C137.297 34.05 137.344 33.81 137.437 33.63C137.537 33.4433 137.671 33.31 137.837 33.23C138.011 33.15 138.201 33.11 138.407 33.11C138.614 33.11 138.801 33.15 138.967 33.23C139.134 33.31 139.267 33.4433 139.367 33.63C139.467 33.81 139.517 34.05 139.517 34.35C139.517 34.6433 139.467 34.8833 139.367 35.07C139.267 35.25 139.134 35.3833 138.967 35.47C138.801 35.55 138.614 35.59 138.407 35.59C138.201 35.59 138.011 35.55 137.837 35.47C137.671 35.3833 137.537 35.25 137.437 35.07C137.344 34.8833 137.297 34.6433 137.297 34.35Z" fill="white"/>
<path d="M127.587 38.1C126.487 38.1 125.217 37.3 125.217 35.65C125.217 34.02 126.447 32.93 127.847 32.93C129.107 32.93 129.837 33.75 129.867 34.7H125.957C125.937 34.85 125.927 35 125.927 35.16C125.927 36.53 126.777 37.47 128.077 37.47C128.847 37.47 129.397 37.12 129.857 36.6L129.947 36.69C129.437 37.39 128.657 38.1 127.587 38.1ZM125.987 34.57H129.067C128.967 33.9 128.427 33.11 127.517 33.11C126.667 33.1 126.147 33.73 125.987 34.57Z" fill="white"/>
<path d="M121.21 38.1C120.58 38.1 120.2 37.71 120.2 36.67V33.14H119.56V33L120.84 31.77H120.98V33H122.5L122.45 33.14H120.98V36.67C120.98 37.35 121.26 37.61 121.69 37.61C121.97 37.61 122.32 37.48 122.65 37.09L122.74 37.18C122.31 37.67 121.8 38.1 121.21 38.1Z" fill="white"/>
<path d="M116.108 38C115.908 38 115.808 37.89 115.808 37.7V35.9C115.498 37.13 114.658 38.1 113.668 38.1C112.928 38.1 112.268 37.65 112.268 36.79C112.268 35.75 113.318 35.36 114.508 35.03L115.808 34.68C115.758 33.71 115.258 33.26 114.408 33.26C113.808 33.26 113.228 33.54 112.728 34.15L112.638 34.07C113.208 33.36 113.938 32.93 114.808 32.93C116.018 32.93 116.578 33.6 116.578 34.73V36.73C116.578 37.55 116.668 37.78 116.978 37.87V38H116.108ZM113.018 36.51C113.018 37.16 113.468 37.51 114.038 37.51C115.108 37.51 115.798 36.16 115.808 35.11V34.83V34.81L114.548 35.15C113.808 35.36 113.008 35.69 113.018 36.51Z" fill="white"/>
<path d="M105.644 34.17C105.334 33.42 105.154 33.22 104.944 33.13V33H106.384V33.13C106.084 33.22 106.164 33.42 106.484 34.17L107.794 37.27L108.974 34.19C109.224 33.53 109.184 33.2 108.834 33.13V33H109.864V33.13C109.584 33.22 109.424 33.42 109.134 34.19L107.664 38H107.244L105.644 34.17Z" fill="white"/>
<path d="M99.8589 38.1C98.5889 38.1 97.2389 37.31 97.2389 35.57C97.2389 34.01 98.4889 32.93 99.8589 32.93C101.099 32.93 102.469 33.69 102.469 35.47C102.469 37.18 101.039 38.1 99.8589 38.1ZM98.0089 35C98.0089 36.27 98.8289 37.89 100.159 37.89C101.229 37.89 101.709 37.03 101.709 36.06C101.709 34.77 100.799 33.05 99.4889 33.12C98.4689 33.16 98.0089 34 98.0089 35Z" fill="white"/>
<path d="M89.2595 38V37.87C89.5695 37.78 89.6595 37.55 89.6595 36.73V34.43C89.6595 33.73 89.5395 33.63 89.2595 33.51V33.4L90.3595 32.92L90.4395 32.99V33.85C91.0195 33.38 91.7895 32.93 92.5595 32.93C93.5395 32.93 94.1395 33.5 94.1395 34.67V36.73C94.1395 37.55 94.2295 37.78 94.5395 37.87V38H92.9595V37.87C93.2695 37.78 93.3595 37.55 93.3595 36.73V34.87C93.3595 33.83 92.9195 33.26 92.0395 33.26C91.4895 33.26 90.9495 33.59 90.4395 34.01V36.73C90.4395 37.55 90.5395 37.78 90.8395 37.87V38H89.2595Z" fill="white"/>
<path d="M84.1988 38.1C83.0988 38.1 81.8288 37.3 81.8288 35.65C81.8288 34.02 83.0587 32.93 84.4587 32.93C85.7187 32.93 86.4488 33.75 86.4788 34.7H82.5687C82.5487 34.85 82.5387 35 82.5387 35.16C82.5387 36.53 83.3888 37.47 84.6888 37.47C85.4588 37.47 86.0088 37.12 86.4688 36.6L86.5587 36.69C86.0487 37.39 85.2688 38.1 84.1988 38.1ZM82.5987 34.57H85.6787C85.5787 33.9 85.0388 33.11 84.1288 33.11C83.2788 33.1 82.7587 33.73 82.5987 34.57Z" fill="white"/>
<path d="M78.8461 38.07C78.0761 38.07 77.9161 37.51 77.4761 36.47C76.8961 35.09 76.8161 34.39 75.6161 34.39H74.9761V36.73C74.9761 37.55 75.0661 37.78 75.3761 37.87V38H73.7561V37.87C74.0661 37.78 74.1561 37.55 74.1561 36.73V32.27C74.1561 31.45 74.0661 31.22 73.7561 31.13V31H75.7261C77.7561 31 78.3561 31.67 78.3561 32.56C78.3561 33.5 77.6761 34.21 76.3761 34.36C77.6061 34.52 77.7961 35.13 78.2761 36.36C78.7561 37.56 78.9561 37.89 79.2961 37.89C79.3561 37.89 79.4061 37.89 79.4561 37.88V38C79.3061 38.05 79.0461 38.07 78.8461 38.07ZM74.9761 34.24H75.8161C76.9661 34.24 77.5061 33.64 77.5061 32.79C77.5061 31.9 76.9261 31.15 75.4461 31.15C75.2961 31.15 75.1361 31.16 74.9761 31.17V34.24Z" fill="white"/>
<path d="M63.9575 34.35C63.9575 34.05 64.0042 33.81 64.0975 33.63C64.1975 33.4433 64.3308 33.31 64.4975 33.23C64.6708 33.15 64.8608 33.11 65.0675 33.11C65.2742 33.11 65.4608 33.15 65.6275 33.23C65.7942 33.31 65.9275 33.4433 66.0275 33.63C66.1275 33.81 66.1775 34.05 66.1775 34.35C66.1775 34.6433 66.1275 34.8833 66.0275 35.07C65.9275 35.25 65.7942 35.3833 65.6275 35.47C65.4608 35.55 65.2742 35.59 65.0675 35.59C64.8608 35.59 64.6708 35.55 64.4975 35.47C64.3308 35.3833 64.1975 35.25 64.0975 35.07C64.0042 34.8833 63.9575 34.6433 63.9575 34.35Z" fill="white"/>
<path d="M51.3688 38V37.87C51.6788 37.78 51.7688 37.55 51.7688 36.73V34.43C51.7688 33.73 51.6488 33.63 51.3688 33.51V33.4L52.4688 32.92L52.5488 32.99V33.85C53.1288 33.38 53.8988 32.93 54.6688 32.93C55.6488 32.93 56.2488 33.5 56.2488 34.67V36.73C56.2488 37.55 56.3388 37.78 56.6488 37.87V38H55.0688V37.87C55.3788 37.78 55.4688 37.55 55.4688 36.73V34.87C55.4688 33.83 55.0288 33.26 54.1488 33.26C53.5988 33.26 53.0588 33.59 52.5488 34.01V36.73C52.5488 37.55 52.6488 37.78 52.9488 37.87V38H51.3688Z" fill="white"/>
<path d="M45.4948 40.77C44.7348 40.77 43.8648 40.44 43.8648 39.54C43.8648 38.91 44.3748 38.4 45.1848 37.91C44.7348 37.8 44.4548 37.59 44.4548 37.16C44.4548 36.79 44.7848 36.54 45.1848 36.28C44.6848 36.02 44.3048 35.56 44.3048 34.82C44.3048 33.77 45.2548 32.93 46.2848 32.93C46.5248 32.93 46.7848 32.96 47.0148 33.03C47.1148 32.9 47.2348 32.77 47.3648 32.67C47.6648 32.4 48.0248 32.22 48.5048 32.22C48.8148 32.22 49.0248 32.31 49.0248 32.46C49.0248 32.63 48.8148 32.97 48.4548 32.97C48.2048 32.97 47.9148 32.88 47.4648 32.74C47.3548 32.82 47.2448 32.94 47.1448 33.08C47.7548 33.3 48.2548 33.79 48.2548 34.65C48.2548 35.8 47.1048 36.53 46.2848 36.53C45.9748 36.53 45.6248 36.47 45.3148 36.34C45.0948 36.49 44.9548 36.59 44.9548 36.78C44.9648 37.05 45.2948 37.21 46.0548 37.25L47.3148 37.33C48.3248 37.39 48.9148 37.53 48.9148 38.31C48.9148 39.45 47.1448 40.77 45.4948 40.77ZM44.5348 39.17C44.5348 39.89 45.1348 40.32 46.0648 40.32C47.3448 40.32 48.5248 39.52 48.5248 38.73C48.5248 38.26 48.1348 38.12 47.3048 38.07L45.9048 38C45.7048 37.99 45.5148 37.97 45.3348 37.94C44.7548 38.33 44.5348 38.74 44.5348 39.17ZM45.0348 34.38C45.0348 35.25 45.5548 36.37 46.4748 36.37C47.2148 36.37 47.5348 35.78 47.5348 35.1C47.5348 34.2 46.9548 33.03 46.0448 33.08C45.3348 33.11 45.0348 33.68 45.0348 34.38Z" fill="white"/>
<path d="M39.6891 38V37.87C39.9991 37.78 40.0891 37.55 40.0891 36.73V34.43C40.0891 33.73 39.9691 33.63 39.6891 33.51V33.4L40.7891 32.92L40.8691 32.99V36.73C40.8691 37.55 40.9691 37.78 41.2691 37.87V38H39.6891ZM39.8691 31.76C39.8691 31.44 40.1091 31.2 40.4191 31.2C40.7391 31.2 40.9691 31.44 40.9691 31.76C40.9691 32.06 40.7291 32.31 40.4191 32.31C40.1091 32.31 39.8691 32.06 39.8691 31.76Z" fill="white"/>
<path d="M35.0764 38.09C34.2764 38.09 33.5864 37.85 33.2564 37.63L33.1664 36.42L33.2564 36.4C33.6764 37.35 34.3864 37.92 35.2964 37.93C35.9164 37.93 36.3764 37.56 36.3764 37C36.3764 36.28 35.6764 36.05 34.9064 35.8C33.9564 35.5 33.2764 35.24 33.2764 34.33C33.2764 33.54 33.9364 32.93 35.0964 32.93C35.7464 32.93 36.3364 33.07 36.6464 33.2L36.6864 34.22L36.5864 34.24C36.2664 33.52 35.6264 33.06 34.9164 33.06C34.2364 33.06 33.7964 33.39 33.7964 33.9C33.7964 34.53 34.4364 34.79 35.2264 35.05C35.9864 35.3 36.9064 35.53 36.9064 36.53C36.9064 37.37 36.2764 38.08 35.0764 38.09Z" fill="white"/>
<path d="M28.0757 38.1C26.9757 38.1 25.7057 37.3 25.7057 35.65C25.7057 34.02 26.9357 32.93 28.3357 32.93C29.5957 32.93 30.3257 33.75 30.3557 34.7H26.4457C26.4257 34.85 26.4157 35 26.4157 35.16C26.4157 36.53 27.2657 37.47 28.5657 37.47C29.3357 37.47 29.8857 37.12 30.3457 36.6L30.4357 36.69C29.9257 37.39 29.1457 38.1 28.0757 38.1ZM26.4757 34.57H29.5557C29.4557 33.9 28.9157 33.11 28.0057 33.11C27.1557 33.1 26.6357 33.73 26.4757 34.57Z" fill="white"/>
<path d="M16.51 38V37.87C16.81 37.78 16.91 37.55 16.91 36.73V32.27C16.91 31.45 16.81 31.22 16.51 31.13V31H18.9C21.65 31 22.73 32.75 22.74 34.37C22.75 36.48 21.33 38 19.13 38H16.51ZM17.73 37.12C17.73 37.59 17.83 37.85 18.38 37.85H19.11C20.86 37.85 21.83 36.86 21.83 34.77C21.83 32.77 20.64 31.15 18.41 31.15H17.73V37.12Z" fill="white"/>
</svg>
